# xmcd
#
# Track frame offsets:
#	225
#	13104
#	27140
#	39374
#	52524
#	64350
#	76058
#	87789
#	99796
#	105397
#	117285
#	128735
#	138760
#	150914
#	168775
#
# Disc length: 2373 seconds
#
# Revision: 1
# Processed by: cddbd v1.5.2PL0 Copyright (c) Steve Scherf et al.
# Submitted via: audiograbber 1.83.01
#
DISCID=9a09420f
DTITLE=Zlate trampske casy - disk 2
DYEAR=1999
DGENRE=Country
TTITLE0=Je na zapad cesta dlouha
TTITLE1=Kalifornie
TTITLE2=Uz jen chvili
TTITLE3=Velka rybi skola
TTITLE4=Lakani
TTITLE5=Stara stezka
TTITLE6=Mexicka svatba
TTITLE7=Jarni kuryr
TTITLE8=Bessie
TTITLE9=Zlate hodiny
TTITLE10=Hej, Jackie!
TTITLE11=Sherif Tobbi
TTITLE12=Quadalcanal
TTITLE13=Kourovej signal
TTITLE14=Posledni pisen
EXTD=
EXTT0=
EXTT1=
EXTT2=
EXTT3=
EXTT4=
EXTT5=
EXTT6=
EXTT7=
EXTT8=
EXTT9=
EXTT10=
EXTT11=
EXTT12=
EXTT13=
EXTT14=
PLAYORDER=
